<svg xmlns="http://www.w3.org/2000/svg" viewBox="0 0 113.39 113.39" width="113.39" height="113.39"><title>H_NOH</title><g class="nc-icon-wrapper"><defs/><g id="&#x30EC;&#x30A4;&#x30E4;&#x30FC;_2" data-name="&#x30EC;&#x30A4;&#x30E4;&#x30FC; 2"><path class="cls-1" id="waku" d="M0 0h113.39v113.39H0z" style="" fill="none"/><g id="&#x7DE8;&#x96C6;&#x30E2;&#x30FC;&#x30C9;"><path class="cls-2" d="M49.61 58.53c-4.25-2.46-5.43-3.26-9.21-3.26s-6 1.39-10.67 3c9.96 1.62 15.63 1.62 19.88.26z" style="" fill="#040000"/><path class="cls-2" d="M83.65 58.3c-4.71-1.64-6.89-3-10.67-3s-5 .8-9.21 3.26c4.23 1.33 9.91 1.33 19.88-.26z" style="" fill="#040000"/><path class="cls-2" d="M48.19 31.17c0-1.57-1.77-2.83-5.67-2.83s-5.67 1.27-5.67 2.83S39.39 34 42.52 34s5.67-1.26 5.67-2.83z" style="" fill="#040000"/><path class="cls-2" d="M56.69 104.87c21 0 36.84-21.51 36.85-50v-.06c0-18.75-3.93-29.63-10.25-37.67C77.48 9.71 70 5.67 59.53 5.67v5.88c0 2.7 1 4.2 3.63 4.69 12.57 2.35 17.59 10.27 21.13 24.2 3.36 13.21 3.48 27.4-1.49 39.3-5.47 11.9-14.93 19.46-26.11 19.46s-20.63-7.56-26.11-19.46c-5-11.89-4.84-26.09-1.49-39.3 3.54-13.93 8.56-21.86 21.13-24.2 2.64-.49 3.63-2 3.63-4.69V5.67c-10.45 0-18 4-23.78 11.46-6.32 8-10.25 18.92-10.25 37.67v.06c0 28.51 15.86 50 36.85 50z" style="" fill="#040000"/><path class="cls-2" d="M76.52 31.17c0-1.57-1.77-2.83-5.67-2.83s-5.67 1.27-5.67 2.83S67.72 34 70.85 34s5.67-1.26 5.67-2.83z" style="" fill="#040000"/><path class="cls-2" d="M66.62 81.29S62.26 85 56.89 85s-10.11-3.74-10.11-3.74a30.11 30.11 0 0 1 10.11-1.93 26.69 26.69 0 0 1 9.73 1.96z" style="" fill="#040000"/></g></g></g></svg>