<svg xmlns="http://www.w3.org/2000/svg" viewBox="0 0 113.39 113.39" width="113.39" height="113.39"><title>H_SAMURAI</title><g class="nc-icon-wrapper"><defs/><g id="&#x30EC;&#x30A4;&#x30E4;&#x30FC;_2" data-name="&#x30EC;&#x30A4;&#x30E4;&#x30FC; 2"><path class="cls-1" id="waku" d="M0 0h113.39v113.39H0z" style="" fill="none"/><g id="&#x7DE8;&#x96C6;&#x30E2;&#x30FC;&#x30C9;"><path class="cls-2" d="M16.55 67.35l8.22 7.81-14.34 15.09a7 7 0 0 0 10.13 9.63l14.33-15.09 8 7.59 5.75-6-26.33-25z" style="" fill="#040000"/><path class="cls-2" d="M103 90.25L88.62 75.16l8.22-7.81-5.74-6-26.33 25 5.75 6 8-7.59 14.31 15.11a7 7 0 0 0 9.88.25 7 7 0 0 0 .29-9.87z" style="" fill="#040000"/><path class="cls-2" d="M80.92 66.86L66 51.18A126.71 126.71 0 0 0 87.87 8.56L56.69 41.37 25.51 8.56a126.71 126.71 0 0 0 21.86 42.62L32.46 66.86l10.23 9.72 14-14.73 14 14.73z" style="" fill="#040000"/></g></g></g></svg>