<svg width="114" height="114" viewBox="0 0 114 114" fill="none" xmlns="http://www.w3.org/2000/svg">
<path d="M17.01 65.2001H79.37V70.8701H17.01V65.2001Z" fill="#B7282E"/>
<path d="M48.1901 79.37H96.3801V85.04H48.1901V79.37Z" fill="#B7282E"/>
<path d="M34.02 93.54H70.87V99.21H34.02V93.54Z" fill="#B7282E"/>
<path d="M90.71 45.35C90.6948 40.4073 89.602 35.5274 87.5079 31.0502C85.4137 26.573 82.3686 22.6062 78.5846 19.4262C74.8007 16.2462 70.3689 13.9295 65.598 12.6374C60.8271 11.3454 55.8319 11.109 50.9604 11.9449C46.0888 12.7808 41.4581 14.6688 37.3908 17.4773C33.3236 20.2859 29.9175 23.9475 27.4101 28.207C24.9026 32.4664 23.354 37.2214 22.8722 42.1406C22.3903 47.0598 22.9868 52.0249 24.62 56.69H88.77C90.0562 53.0477 90.7122 49.2128 90.71 45.35V45.35Z" fill="#B7282E"/>
</svg>
